<svg width="346" height="345" viewBox="0 0 346 345" fill="none" xmlns="http://www.w3.org/2000/svg">
<path d="M84.5915 9.32071C82.8617 23.734 77.7683 41.3184 75.2697 41.3184C74.597 41.3184 69.9842 39.3967 65.083 37.0905C57.2028 33.439 45.1901 29.7877 40.7695 29.7877C39.6162 29.7877 40.1928 31.5173 42.9798 37.1866C47.2082 45.7386 51.0522 59.0949 50.5717 63.7072L50.2834 66.782L41.6344 67.4548C16.4559 69.3765 4.63539 70.5296 4.63539 71.01C4.63539 71.3944 8.86384 75.9106 14.0533 81.1955C23.7595 90.9966 30.871 101.47 30.3905 105.122C30.1983 106.467 25.2971 110.502 15.2065 117.517C7.03792 123.187 0.214742 128.279 0.0225402 128.76C-0.169662 129.24 0.88745 129.913 2.42507 130.297C12.7079 132.508 17.1286 133.948 20.7804 136.063C25.7776 139.041 30.9671 143.462 33.5619 147.113L35.4839 149.803L24.7205 160.469C15.687 169.501 14.1494 171.328 15.3027 172.384C16.0714 173.057 21.8375 175.267 28.1801 177.189C34.5228 179.111 40.0968 181.129 40.5772 181.609C41.0577 182.089 40.2889 186.99 38.463 193.716C36.8293 199.962 35.7722 205.439 36.0605 205.919C36.5409 206.784 52.3977 206.015 54.9923 205.055C57.3949 204.19 58.3559 206.496 59.0286 214.087C59.4131 218.507 59.9896 222.255 60.3741 222.446C61.1428 222.928 71.9062 218.315 71.9062 217.546C71.9062 217.258 70.6569 215.24 69.1193 213.03C64.6986 206.592 61.7195 199.962 58.9325 190.737C57.5871 185.933 55.569 179.495 54.608 176.324C53.5509 173.153 52.4938 168.829 52.3015 166.715C50.9561 156.53 50.7639 152.782 51.725 152.782C52.2055 152.782 52.686 154.416 52.686 156.337C52.782 160.662 54.8963 172.192 56.3378 176.324C56.9144 177.861 58.7404 183.531 60.3741 188.815C64.3142 201.211 69.9842 212.358 74.8853 217.258C77.1918 219.564 82.189 222.831 86.994 225.041L95.0665 228.789L94.7786 232.344L94.4899 235.9L73.0594 243.01L51.6288 250.216L48.8419 259.345C47.3043 264.438 42.9798 279.524 39.1357 292.977C35.2917 306.333 31.6398 317.863 31.0632 318.44C30.4866 319.016 28.7568 324.205 27.3152 330.066C25.8738 335.832 24.5284 341.405 24.24 342.271C23.7595 343.904 27.6036 344 95.8355 344C164.163 344 168.008 343.904 168.008 342.271C168.008 341.405 163.491 336.409 157.917 331.22C152.343 326.031 147.826 321.227 147.826 320.458C147.826 319.785 151.286 316.23 155.418 312.579C165.989 303.547 166.086 302.97 161.761 291.919C154.457 273.375 138.793 244.739 133.026 239.359C131.2 237.629 130.527 235.995 130.527 233.401C130.527 229.461 131.393 228.501 136.294 226.867C141.291 225.234 146.192 221.486 149.556 216.778C152.247 213.03 153.4 212.358 160.799 210.052C165.317 208.61 168.968 207.072 168.968 206.688C168.968 206.208 167.239 203.71 165.124 201.211C160.992 196.214 160.223 192.659 163.01 191.794C163.875 191.506 167.239 191.025 170.41 190.641C173.581 190.353 176.464 189.872 176.848 189.584C177.714 189.199 172.813 175.556 171.66 175.074C171.275 174.883 170.89 174.018 170.89 173.057C170.89 171.904 172.236 171.039 175.695 170.174C181.653 168.637 195.876 161.814 195.876 160.565C195.876 159.989 194.051 158.643 191.841 157.49C179.54 151.244 169.545 144.038 171.563 142.885C171.947 142.693 175.503 141.54 179.347 140.387C183.191 139.234 189.438 136.832 193.281 135.101C199.913 132.123 213.56 124.051 212.982 123.475C212.598 123.187 186.554 112.04 184.056 111.175C182.903 110.695 182.615 110.118 183.095 109.253C183.479 108.485 189.822 102.335 197.126 95.6093C204.334 88.7866 210.292 82.9251 210.292 82.5407C210.292 81.772 204.333 80.715 186.747 78.2168C180.404 77.2558 174.83 76.2949 174.446 75.9106C173.966 75.5262 178.387 67.0704 184.248 57.1732C193.763 40.9341 195.589 37.4748 194.627 37.4748C194.435 37.4748 186.554 40.2615 177.137 43.7206C163.394 48.7173 159.646 49.6782 158.686 48.7173C156.571 46.6034 154.553 30.7486 154.553 16.5273V2.78659L146.769 6.91843C137.639 11.819 125.435 21.3318 119.765 27.962C117.65 30.5564 115.44 32.6704 115.056 32.6704C114.575 32.6704 110.923 28.2503 106.791 22.7732C99.6798 13.3564 87.6667 0 86.3213 0C85.9369 0 85.1681 4.22793 84.5915 9.32071ZM87.2824 250.12C83.7266 252.907 65.5635 300.856 67.005 303.354C67.4855 304.218 71.6179 308.158 76.2307 312.195C80.9397 316.23 84.8799 319.978 85.0721 320.554C85.2642 321.131 84.111 323.245 82.4773 325.262C80.9397 327.28 79.5943 328.337 79.5943 327.664C79.5943 327.088 80.4591 325.358 81.6124 324.013L83.6305 321.419L74.4048 312.771C67.9661 306.717 65.1791 303.45 65.1791 301.912C65.1791 298.838 76.1347 269.434 82.8617 254.349C84.4954 250.697 85.8409 248.871 86.994 248.871C88.5317 248.967 88.5317 249.063 87.2824 250.12Z" fill="#F5F5F5"/>
<path d="M247.974 135.302C221.011 140.219 206.138 150.92 186.852 179.555C182.63 185.726 182.341 186.497 182.341 192.475C182.341 197.102 181.382 201.634 178.888 209.443C174.666 222.652 174.857 225.737 180.902 236.053C183.301 240.103 185.22 243.96 185.22 244.441C185.22 245.02 183.972 246.852 182.341 248.587C177.256 254.082 177.352 262.566 182.63 268.255C185.7 271.437 192.897 274.425 194.816 273.172C195.295 272.883 194.624 270.665 193.376 268.158C192.033 265.748 190.977 263.049 191.073 262.181C191.073 261.217 191.553 261.506 192.129 263.049C193.76 266.616 201.34 278.379 205.082 283.006C212.471 292.262 228.399 301.614 243.272 305.567C247.782 306.724 255.746 307.784 262.463 308.074C268.795 308.363 273.113 308.941 272.058 309.327C266.301 311.351 239.817 307.591 227.631 302.964L221.299 300.554L219.667 302.771C213.622 310.773 206.713 328.996 204.986 341.336L204.507 345H263.998C320.227 345 323.489 344.903 323.009 343.265C322.722 342.397 321.186 336.612 319.652 330.441C316.293 317.137 313.606 310.484 309.288 304.796C307.561 302.482 306.122 300.072 306.122 299.397C306.217 298.818 308.616 296.504 311.591 294.383C316.964 290.526 324.353 282.717 328.383 276.547C329.726 274.522 331.837 272.883 333.757 272.305C335.388 271.822 338.458 269.798 340.569 267.87C347.19 261.506 347.862 252.829 342.008 247.719C339.993 245.984 339.705 245.116 340.281 242.031C340.665 240.103 341.24 238.271 341.625 237.981C342.008 237.693 342.872 234.896 343.544 231.714C344.503 227.087 344.503 223.52 343.544 213.589C342.872 206.84 341.912 201.345 341.432 201.345C340.953 201.345 340.665 198.645 340.761 195.27C340.953 189.968 340.473 188.329 337.018 181.58C332.413 172.42 325.6 162.394 318.691 154.874C314.47 150.245 311.687 148.414 300.844 143.015C293.168 139.255 285.299 136.073 281.462 135.302C273.498 133.566 257.185 133.566 247.974 135.302Z" fill="#F5F5F5"/>
<path d="M135 240.556C135 240.845 136.841 243.542 139.165 246.529C141.49 249.517 144.687 254.238 146.431 256.839C150.984 264.065 161.544 286.611 164.644 295.572C168.034 305.11 167.744 305.785 157.571 314.36C153.696 317.636 150.5 321.105 150.5 321.875C150.5 322.743 154.858 327.367 160.187 332.378C166 337.677 169.874 342.013 169.874 343.169C169.874 344.904 170.65 345 183.437 345C193.609 345 197 344.711 197 343.747C197 339.7 173.265 254.816 171.037 250.769C170.65 249.998 164.45 247.975 157.281 246.144C150.112 244.41 142.653 242.29 140.618 241.423C136.647 239.881 135 239.593 135 240.556Z" fill="#F5F5F5"/>
</svg>

